<svg xmlns="http://www.w3.org/2000/svg" xmlns:xlink="http://www.w3.org/1999/xlink" viewBox="0 0 302.18 217.73"><defs><linearGradient id="linear-gradient" x1="136.79" y1="104.45" x2="176.47" y2="104.45" gradientTransform="matrix(1 0 0 -1 0 176.63)" gradientUnits="userSpaceOnUse"><stop offset=".03" stop-color="#c29331"/><stop offset=".03" stop-color="#c39432"/><stop offset=".11" stop-color="#d6b34c"/><stop offset=".2" stop-color="#e4cb5d"/><stop offset=".29" stop-color="#efdd6b"/><stop offset=".39" stop-color="#f5e573"/><stop offset=".51" stop-color="#f6e875"/><stop offset=".62" stop-color="#f4e573"/><stop offset=".72" stop-color="#ebd969"/><stop offset=".83" stop-color="#dcc55a"/><stop offset=".93" stop-color="#c7aa43"/><stop offset="1" stop-color="#b6932f"/></linearGradient><linearGradient id="linear-gradient-2" x1="125.68" y1="104.45" x2="165.35" y2="104.45" xlink:href="#linear-gradient"/><linearGradient id="linear-gradient-3" x1="136.79" y1="99.72" x2="176.47" y2="99.72" xlink:href="#linear-gradient"/><linearGradient id="linear-gradient-4" x1="136.79" y1="90.02" x2="176.47" y2="90.02" xlink:href="#linear-gradient"/><linearGradient id="linear-gradient-5" x1="136.79" y1="97.33" x2="176.47" y2="97.33" xlink:href="#linear-gradient"/><linearGradient id="linear-gradient-6" x1="125.68" y1="99.73" x2="165.35" y2="99.73" xlink:href="#linear-gradient"/><linearGradient id="linear-gradient-7" x1="125.68" y1="97.32" x2="165.35" y2="97.32" xlink:href="#linear-gradient"/><linearGradient id="linear-gradient-8" x1="125.68" y1="90.02" x2="165.35" y2="90.02" xlink:href="#linear-gradient"/><linearGradient id="linear-gradient-9" x1="119.35" y1="13.97" x2="138.59" y2="13.97" xlink:href="#linear-gradient"/><linearGradient id="linear-gradient-10" x1="128.75" y1=".01" x2="152.14" y2=".01" xlink:href="#linear-gradient"/><linearGradient id="linear-gradient-11" x1="227.79" y1="92.72" x2="244.65" y2="92.72" xlink:href="#linear-gradient"/><linearGradient id="linear-gradient-12" x1="57.85" y1="36.52" x2="74.98" y2="36.52" xlink:href="#linear-gradient"/><linearGradient id="linear-gradient-13" x1="63.68" y1="123.48" x2="238.02" y2="123.48" xlink:href="#linear-gradient"/><linearGradient id="linear-gradient-14" x1="64.18" y1="6.06" x2="238.47" y2="6.06" xlink:href="#linear-gradient"/><style>.cls-1{fill:#fff}.cls-4{fill:#242d63}.cls-5{fill:none}.cls-18{fill:#dc2e27}</style></defs><g id="Layer_2" data-name="Layer 2"><g id="Layer_1-2" data-name="Layer 1"><path class="cls-1" d="M86 73.06a2.28 2.28 0 00-.62-.49 2 2 0 00-1.31-.29c-.42.08-.84.58-1.31 1.31l-.26.41 3.1 1.78.45-.81a2.68 2.68 0 00.22-.73 1.47 1.47 0 000-.66 1.2 1.2 0 00-.27-.52zM192.56 44.4a2.09 2.09 0 00-2.09-.21 4.4 4.4 0 00-2.08 1.94 4.43 4.43 0 00-.85 2.7 2.22 2.22 0 001.19 1.83 2.28 2.28 0 002.13.25 4.36 4.36 0 002-2 4.25 4.25 0 00.93-2.62 2.29 2.29 0 00-1.23-1.89zM206.18 56.79l-3.36 1.31 1.93 2.01 1.43-3.32zM168.79 41.9a2.17 2.17 0 001.3-.81 4.29 4.29 0 001-1.93 5.8 5.8 0 00.16-1.81 3.22 3.22 0 00-.42-1.39 2.61 2.61 0 00-.87-.91 5.59 5.59 0 00-1.43-.53 7.8 7.8 0 00-.89-.18l-1.75 7.16 1.21.27a4.21 4.21 0 001.69.13zM159 34.48a1.48 1.48 0 000-.42.76.76 0 00-.16-.34.67.67 0 00-.27-.23 1 1 0 00-.37-.11.82.82 0 00-.68.21.92.92 0 00-.3.64 3.37 3.37 0 00.66 1.57 1.66 1.66 0 001.12-1.32zM157.53 40.11a2.1 2.1 0 001.47-.57l.09-.09-1.88-3a2.61 2.61 0 00-.92.76 1.58 1.58 0 00-.4.9 1.86 1.86 0 00.34 1.31 1.68 1.68 0 001.3.69zM119.86 44.35l-2.73-2.38.23 3.54 2.5-1.16zM136.54 40.81h-.06a2.15 2.15 0 002.1.55 2.25 2.25 0 001.74-1.36 4.33 4.33 0 00.1-2.82 4.36 4.36 0 00-1.11-2.61 2.3 2.3 0 00-2.18-.55 2.1 2.1 0 00-1.67 1.3 4.41 4.41 0 00-.23 2.84 4.45 4.45 0 001.31 2.65zM215.12 78.28a4.25 4.25 0 002.74-.76 4.31 4.31 0 002.14-1.84 2.32 2.32 0 00-.13-2.24 2.1 2.1 0 00-1.71-1.22 4.44 4.44 0 00-2.77.66 4.33 4.33 0 00-2.09 2 2.19 2.19 0 00.12 2.17 2.23 2.23 0 001.7 1.23zM200.72 50.82c0-.43-.43-.92-1.15-1.51l-.39-.31-2.26 2.76.73.64a2.79 2.79 0 00.73.37 1.21 1.21 0 00.65.07 1.11 1.11 0 00.59-.18 2 2 0 00.59-.54 1.9 1.9 0 00.51-1.3zM95.54 62.87l1.87-2.05-3.42-1.22 1.55 3.27zM151.07 72.82l.67-.61-.67-.68-.66.68z"/><path d="M151.07 72.82l.67-.61-.67-.68-.66.68z" fill="url(#linear-gradient)"/><path d="M151.07 72.82l.67-.61-.67-.68-.66.68z" fill="url(#linear-gradient-2)"/><path class="cls-4" d="M94.37 69.56a5.23 5.23 0 00.77-1.68 3.09 3.09 0 000-1 1.49 1.49 0 00-.66-1.17l-1-.75-.66.9 1.09.77a1.75 1.75 0 01.6.64 1.33 1.33 0 01.11.88 2.62 2.62 0 01-2.27 2.08 4.29 4.29 0 01-2.81-1.06 4 4 0 01-1.83-2.33 2.67 2.67 0 01.47-2 2.56 2.56 0 011.61-1.05 2.81 2.81 0 01.58 0v-.36A3.17 3.17 0 0088 64.87a3.51 3.51 0 00-.67 3A4.31 4.31 0 0089 70.44a3.69 3.69 0 002.87.72 3.78 3.78 0 002.5-1.6zM99.16 61.43l1.47.54.85-.93-8.17-2.84-.17.17 3.65 7.85.29-.32-1.4-2.8 2-2.18zm-3.62 1.44L94 59.6l3.42 1.22zM107.58 55.67l-4.24-4.9-.95-1.11-.27.22.92 1.04 3.03 3.52-7.4-1.6-.91.79L99 55.07l2.69 3.12 1.14 1.31.18-.17-1.12-1.31-3.52-4.08 9.04 1.87.17-.14zM109.5 54.27l.94-.68-1.22-1.67-2.3-3.17-1.16-1.59-.93.68 1.15 1.59 2.3 3.17 1.22 1.67zM113.63 51.05a2.61 2.61 0 01-2.28-.14v.31a3.23 3.23 0 002.62 0 2.5 2.5 0 001.3-1.3 2.09 2.09 0 00-.1-1.73 2.11 2.11 0 00-.71-.86 1.79 1.79 0 00-1-.35 14.06 14.06 0 00-1.59 0 6.1 6.1 0 01-1.65-.13 1.16 1.16 0 01-.77-1.45 1.18 1.18 0 01.75-.76 1.73 1.73 0 011.3-.11l.34.14.11-.31a2.34 2.34 0 00-1.07-.19 2.42 2.42 0 00-.91.25 2.08 2.08 0 00-1.06 1.12A1.79 1.79 0 00109 47a2 2 0 00.67.79 2.31 2.31 0 001 .38 13.71 13.71 0 001.57 0 4.5 4.5 0 011.55.15 1.32 1.32 0 01.78 1.81 1.63 1.63 0 01-.94.92zM116.74 40.53l.52 8.6.38-.18-.18-3.1 2.61-1.31 1.09 1 1.19 1 1.13-.55-6.48-5.55zm3.12 3.82l-2.49 1.16-.24-3.51zM126.93 36.52l-.1-.25-7.26 2.89.1.25 1.98-.8 1.1-.43 2.07 5.19.77 1.94 1.08-.43-.78-1.94-2.07-5.19 1.23-.49 1.88-.74zM131.51 43.26l1.11-.32-.58-1.99-1.07-3.75-.55-1.9-1.11.32.54 1.89 1.08 3.77.58 1.98zM135.64 41a4 4 0 005.5-1.08 3.84 3.84 0 00.62-3 3.72 3.72 0 00-1.76-2.65 3.77 3.77 0 00-2.9-.54 3.73 3.73 0 00-2.49 1.56v.09a3.67 3.67 0 00-.65 3 3.83 3.83 0 001.68 2.62zm-.18-5.66a2.1 2.1 0 011.67-1.3 2.3 2.3 0 012.18.55 4.36 4.36 0 011.11 2.61 4.33 4.33 0 01-.1 2.82 2.25 2.25 0 01-1.74 1.31 2.15 2.15 0 01-2.1-.55h.06a4.45 4.45 0 01-1.31-2.62 4.41 4.41 0 01.23-2.81zM144.15 32.66l.1 1.9.22 4.11.1 1.73.26-.01-.09-1.73-.3-5.38 6.02 7 .21-.01-.35-6.47-.08-1.48-.33.03.07 1.38.26 4.64-4.89-5.77-1.2.06zM155 38.41a1.64 1.64 0 00.09.85 2.28 2.28 0 00.44.71 2.11 2.11 0 001.36.7 2.88 2.88 0 002-.77l.12-.1.13-.11L160 41l1.12.11-1.25-2 1.46-1.31H161l-1.22 1.08L158 36c1.13-.44 1.59-1 1.59-1.54a1 1 0 00-.35-.94 1.72 1.72 0 00-1.07-.45 1.54 1.54 0 00-1.18.36 1.44 1.44 0 00-.55 1 3.33 3.33 0 00.64 1.74 6.54 6.54 0 00-1.54 1.07 1.86 1.86 0 00-.54 1.17zm2.15-4.18a.92.92 0 01.3-.64.82.82 0 01.68-.21 1 1 0 01.37.11.67.67 0 01.27.23.76.76 0 01.16.34 1.48 1.48 0 010 .42 1.66 1.66 0 01-1.14 1.31 3.37 3.37 0 01-.66-1.57zm-1.3 3.87a1.58 1.58 0 01.4-.9 2.61 2.61 0 01.92-.76l1.88 3-.09.09a2.1 2.1 0 01-1.47.57 1.68 1.68 0 01-1.3-.7 1.86 1.86 0 01-.3-1.3zM169.53 42.27a3.16 3.16 0 001.22-.45 3.39 3.39 0 001-1 4.77 4.77 0 00.64-1.46 4.68 4.68 0 000-2.17 3.5 3.5 0 00-1.09-1.75 5.74 5.74 0 00-2.55-1.18l-2.14-.53-1.87 7.7 2.12.52a7.63 7.63 0 001.5.3 4 4 0 001.17.02zm-3.68-.77l1.75-7.16a7.8 7.8 0 01.89.18 5.59 5.59 0 011.43.53 2.61 2.61 0 01.87.91 3.22 3.22 0 01.42 1.39 5.8 5.8 0 01-.16 1.81 4.29 4.29 0 01-1 1.93 2.17 2.17 0 01-1.3.81 4.21 4.21 0 01-1.73-.13zM179.74 35.72l-.97.58.42.17 1.07-.54-.52-.21zM175.68 38.19l-1.08 2.72-.17.43-.19.52-.75 1.9 4.34 1.7.11-.25-2.29-.9-.85-.39.64-1.65.21-.51.1-.28v-.17l.36-.9.78.3 1.37.54.09-.26-1.39-.54-.75-.3.52-1.31.08-.22.63-1.59.99.39 2.29.9.09-.25-4.35-1.71-.78 1.83zM183.24 40.5a2.36 2.36 0 012.19-.06 2.89 2.89 0 011.3 1.31 2.49 2.49 0 01.2.6l.29-.09a3.29 3.29 0 00-.62-1.13 3.58 3.58 0 00-1.3-1 4 4 0 00-2-.38 3.22 3.22 0 00-1.88.77 5 5 0 00-1.31 1.74c-.06.12-.12.24-.17.36a3.62 3.62 0 002 4.71 3.33 3.33 0 002.86 0v-.28a2.15 2.15 0 01-1.13.32 2.83 2.83 0 01-1.31-.27 2.46 2.46 0 01-1.36-1.63 4 4 0 01.42-2.73 4.69 4.69 0 011.82-2.24zM194 49.6a3.63 3.63 0 00.5-3.1 4.06 4.06 0 00-4.65-2.9 3.67 3.67 0 00-2.53 1.78 3.89 3.89 0 00-.55 3.11 4.07 4.07 0 004.72 3A3.82 3.82 0 00194 49.6zm-3.12 1.31a2.28 2.28 0 01-2.13-.25 2.22 2.22 0 01-1.19-1.83 4.43 4.43 0 01.85-2.7 4.4 4.4 0 012.08-1.94 2.09 2.09 0 012.09.21 2.29 2.29 0 011.22 1.88 4.25 4.25 0 01-.93 2.62 4.36 4.36 0 01-2.01 2.01zM201.27 52.86a1.66 1.66 0 00.39-1.15 2.59 2.59 0 00-.48-1.23 7.07 7.07 0 00-1.31-1.31l-1.35-1.1-1.3 1.55-2.43 3-1.31 1.62.87.72 1.31-1.63 1.05-1.3.27.22c1.69 1.37.43 4.76.28 5.1l.7.59a12.61 12.61 0 00.6-2.84 3.55 3.55 0 00-.38-2 3 3 0 001.78.48 1.72 1.72 0 001.31-.72zm-1.65-.2a1.11 1.11 0 01-.59.18 1.21 1.21 0 01-.65-.07 2.79 2.79 0 01-.73-.37l-.73-.64 2.26-2.76.39.31c.72.59 1.15 1.08 1.15 1.51a1.9 1.9 0 01-.51 1.3 2 2 0 01-.59.54zM202.6 58.23l2 2.14-.6 1.39-.64 1.44.88.91 3.36-8-.16-.17-8 3.17.3.3zm3.58-1.44l-1.43 3.32-1.93-2zM205.58 65.86l.73.91 1.63-1.34 4.31-3.55.84 1.02 1.28 1.56.2-.17-4.95-6.02-.21.15 1.36 1.67.75.9-4.33 3.54-1.61 1.33zM214.94 68.52l1.63-1.1-.64-.97-1.64 1.1-3.24 2.17-1.73 1.15.65.97 1.72-1.15 3.25-2.17z"/><path class="cls-5" d="M20.35 111.27h6.49l-3.25-8.93-3.24 8.93zM301 107.5a5.74 5.74 0 00-5.73-5.74h-3.62v11.47h3.61a5.73 5.73 0 005.74-5.73z"/><path class="cls-1" d="M81.3 85.16a4.57 4.57 0 002.84.39 2.21 2.21 0 001.62-1.47 2.25 2.25 0 00-.11-2.15 4.34 4.34 0 00-2.3-1.64 4.24 4.24 0 00-2.75-.49 2.39 2.39 0 00-1.68 1.51 2.11 2.11 0 00.13 2.09 4.41 4.41 0 002.25 1.76zM125.56 104.28a10 10 0 00-7.24-2.54l-2.73.11v18.74h2.73a10 10 0 007.24-2.61 9.73 9.73 0 000-13.7zM130.4 188.34a1 1 0 001.16-.13 5.37 5.37 0 001.4-1.49c.5-.69.87-1.31 1.15-1.7s.57-1 .9-1.56l.07-.14v-.21h.1c1.31-2.37 2.8-5.23 4.29-8.5a25.44 25.44 0 00-5.84 4.85 17.09 17.09 0 00-3.51 5.37 7.72 7.72 0 00-.3 1.17 4.05 4.05 0 000 1.3 1.33 1.33 0 00.58 1.04zM177.54 169.88c2.27 0 3.29-1.47 3.29-4.72s-1.05-4.88-3.26-4.88-3.28 1.55-3.28 4.81.99 4.79 3.25 4.79zM224.33 101.76h-3.61v11.47h3.61a5.74 5.74 0 100-11.47z"/><path class="cls-1" d="M151.09 0a108.87 108.87 0 10108.1 121.82h-10.25v-21.28h10.64v1.2h-9.44v8.84h9.44v1.2h-9.44v8.84h9.18A108.83 108.83 0 00151.09 0zm-27.66 24.88A91.22 91.22 0 01238 84.14h-1.3a90 90 0 00-171.8 1.58h-1.22a91.21 91.21 0 0159.75-60.84zm107.47 96.94h-1.46l-4.8-7.37h-3.92v7.37h-1.2v-21.28h5.58a7.14 7.14 0 014.14 2 7 7 0 01-3.24 11.71zm-6.84-35.89l-6 2.31L218 88l4.82-7.88-5 1.94-1.62.61-.09-.23 1.62-.62 3.84-1.48 1.78-.68.43 1.13-4 6.42 4.22-1.62 1.3-.51.12.31zM211 110.55v1.21h-9.44v8.83H211v1.2h-10.63v-21.25H211v1.18h-9.44v8.83zm-12.44-55.47a12.61 12.61 0 01-.6 2.84l-.7-.59c.15-.34 1.41-3.73-.28-5.1l-.27-.22-1.05 1.3-1.31 1.63-.87-.72 1.31-1.62 2.43-3 1.3-1.55 1.35 1.1a7.07 7.07 0 011.31 1.31 2.59 2.59 0 01.48 1.23 1.66 1.66 0 01-.39 1.15 1.72 1.72 0 01-1.31.65 3 3 0 01-1.78-.48 3.55 3.55 0 01.38 2.07zm-17.41 46.66v-1.2h12v1.2h-5.38v20.08h-1.19v-20.08zm-13.7 66.44a5.08 5.08 0 000-.78v-10.59c0-1.95-.19-2.36-1.47-2.36h-.19v-.58a10.31 10.31 0 003.17-.51h.25l.07 13.28c0 2.62 0 2.81 1.48 2.82h.29v.54h-5.32v-.58h.27c.73 0 1.1-.11 1.31-.45a1.4 1.4 0 00.14-.79zm-9.19-65.72v19.36h-1.2v-21.28h1.53l14.14 19.82v-19.82h1.21v21.28h-1.86zm-1 67.25a6.45 6.45 0 003.27-1 6.92 6.92 0 002.61-4.8l.5-.07v5.81h-.53a4.12 4.12 0 00-.78-1.73 7.11 7.11 0 01-5.54 2.43 7.74 7.74 0 01-8.09-7.35 7.45 7.45 0 010-.82c0-5.23 3.29-8.83 8-8.83a7.37 7.37 0 015.57 2.42 6.51 6.51 0 00.64-2.12h.52l.15 6.24h-.53a8.82 8.82 0 00-1.3-3.61 5.67 5.67 0 00-4.68-2.31c-3.54 0-5.66 3-5.66 8.1.06 4.66 2.32 7.64 5.85 7.64zm-20.21-6.53a1.81 1.81 0 00-.9-.53 8.51 8.51 0 00-1.13-.14 5 5 0 00-1.09 0 14.57 14.57 0 00-3.13.61 43.21 43.21 0 01-4.28 2.07c-.54 1.45-1 2.61-1.43 3.45a.27.27 0 01-.33.17h-.05a.29.29 0 01-.2-.35c.23-.82.54-1.76.94-2.82-.91.35-1.81.67-2.71 1a.32.32 0 01-.27 0 .27.27 0 01-.17-.16.45.45 0 010-.23.43.43 0 01.07-.25.41.41 0 01.2-.17c.65-.26 1.82-.8 3.49-1.58l.52-1.31c.11-.24.28-.72.54-1.48s.5-1.3.71-1.85a10.76 10.76 0 01.7-1.4.15.15 0 010-.16l.14-.19a.18.18 0 01.26 0 .21.21 0 01.1.24 11.92 11.92 0 01-.44 1.76c-.2.59-.48 1.32-.83 2.19l-.68 1.67v.08a32.74 32.74 0 013.81-1.5l1.15-.69c.45-.26.85-.5 1.15-.71l1.3-.87a9.34 9.34 0 001.31-1.12 14.59 14.59 0 001.05-1.17 4.12 4.12 0 00.73-1.31 2.64 2.64 0 000-1.31 1.83 1.83 0 00-.3-.77 2.28 2.28 0 00-.59-.57 5.37 5.37 0 00-.73-.43 4.27 4.27 0 00-.84-.32l-.83-.18a5.44 5.44 0 00-.8-.09 10.87 10.87 0 00-3.22.17 10.31 10.31 0 00-2.89 1 15.34 15.34 0 00-2.51 1.73 14 14 0 00-2.15 2.27 25.41 25.41 0 00-1.72 2.57 20.9 20.9 0 00-1.39 2.65s0 .08-.1.08a.24.24 0 01-.12 0 .12.12 0 010-.14 17.43 17.43 0 012.94-5.87 14.12 14.12 0 014.84-4.11 12.84 12.84 0 013.72-1.24 10.76 10.76 0 013.92 0 6.71 6.71 0 012.49 1.06 2.62 2.62 0 011.16 2 4.18 4.18 0 01-.35 2 6.44 6.44 0 01-1.31 1.84 17.55 17.55 0 01-1.63 1.48c-.54.41-1.14.83-1.82 1.3a8.37 8.37 0 012.91.15 2.71 2.71 0 011.58 1 1.88 1.88 0 01.38 1.43 5.48 5.48 0 01-.51 1.67 8.55 8.55 0 01-1 1.61 10.74 10.74 0 01-1.13 1.3 22.73 22.73 0 012.61 0v.08a.34.34 0 01.31.21.36.36 0 010 .35.3.3 0 01-.31.17 31.2 31.2 0 00-3.62.08 19.1 19.1 0 01-7.11 3.92 2.18 2.18 0 01-1.47 0 .69.69 0 01-.39-.83 2.16 2.16 0 01.92-1.18 14.84 14.84 0 017.68-2.68 14.56 14.56 0 001.75-1.67 4.69 4.69 0 001.46-2.89 1.6 1.6 0 00-.36-1.09zM114.56 49a1.36 1.36 0 00-.78-.69 4.5 4.5 0 00-1.55-.15 13.71 13.71 0 01-1.57 0 2.31 2.31 0 01-1-.38A2 2 0 01109 47a1.79 1.79 0 01-.08-1.45 2.08 2.08 0 011.08-1.16 2.42 2.42 0 01.91-.25 2.34 2.34 0 011.07.19l-.11.31-.34-.14a1.73 1.73 0 00-1.3.11 1.18 1.18 0 00-.75.76 1.16 1.16 0 00.77 1.45 6.1 6.1 0 001.65.13 14.06 14.06 0 011.59 0 1.79 1.79 0 011 .35 2.11 2.11 0 01.71.86 2.09 2.09 0 01.1 1.73 2.5 2.5 0 01-1.3 1.3 3.23 3.23 0 01-2.62 0v-.31a2.61 2.61 0 002.28.14 1.63 1.63 0 00.93-1 1.37 1.37 0 00-.03-1.02zm-12.67 9l1.11 1.33-.18.17-1.14-1.31L99 55.07l-1.24-1.44.91-.79 7.4 1.6-3-3.52-.92-1 .27-.23 1 1.12 4.24 4.9-.17.14-9-1.87zm-4.81 7.9l-.29.32-3.65-7.85.17-.17 8.17 2.8-.85.93-1.47-.54-1.49-.51-2 2.18zm-3.88 44.68v1.2h-9.44v8.84h9.44v1.2H82.56v-21.28H93.2v1.2h-9.44v8.84zM78.66 81.17a3.81 3.81 0 012-2.13 3.63 3.63 0 013.15 0 3.77 3.77 0 012.21 2.18 4.05 4.05 0 01-2.16 5.13 3.84 3.84 0 01-3.15 0 3.62 3.62 0 01-2.15-2.21h.06a3.67 3.67 0 01.04-2.97zm9.87-7.57a13.31 13.31 0 012.89.13l-.45.8c-.36-.11-3.92-.77-5 1.11l-.17.3 1.45.82 1.83 1-.56 1-1.83-1-3.33-1.91-1.74-1 .86-1.53a6.64 6.64 0 011.07-1.49 2.36 2.36 0 011.13-.68 1.6 1.6 0 011.21.18 1.69 1.69 0 01.85 1.15 2.88 2.88 0 01-.18 1.83 3.75 3.75 0 011.97-.71zm3.35-2.44a3.69 3.69 0 01-2.88-.72 4.31 4.31 0 01-1.7-2.54 3.51 3.51 0 01.67-3 3.17 3.17 0 012.38-1.41v.36a2.81 2.81 0 00-.58 0 2.56 2.56 0 00-1.61 1.05 2.67 2.67 0 00-.47 2 4 4 0 001.83 2.33 4.29 4.29 0 002.81 1.06 2.62 2.62 0 002.27-2.08 1.33 1.33 0 00-.11-.88 1.75 1.75 0 00-.6-.64l-1.09-.79.66-.9 1 .75a1.49 1.49 0 01.66 1.17 3.09 3.09 0 010 1 5.23 5.23 0 01-.77 1.68 3.78 3.78 0 01-2.47 1.56zM106 49.43l-1.15-1.59.93-.68 1.16 1.59 2.3 3.17 1.22 1.67-.94.68-1.22-1.67zm8.43 51.11h3.92a11.1 11.1 0 018.15 2.94 10.93 10.93 0 010 15.43 11.12 11.12 0 01-8.15 2.91h-3.92zM132 79c1.82-1.82 3.94-3.91 6.24-6.11 1.15-1.11 2.28-2.23 3.59-3.35.61-.57 1.26-1.13 1.92-1.68a12.09 12.09 0 011.09-.79 1.45 1.45 0 011-.32 2.19 2.19 0 01.83.46c1.49 1.44 3 2.89 4.37 4.32 1.41-1.43 2.88-2.88 4.37-4.32a2.22 2.22 0 01.82-.46 1.55 1.55 0 011 .32c.4.26.74.52 1.08.79.66.55 1.3 1.11 1.93 1.68 1.31 1.12 2.43 2.24 3.58 3.35 2.3 2.2 4.42 4.29 6.24 6.11 3.63 3.62 6 6.1 6.14 6.19a1.31 1.31 0 01-1.82 1.7c-.09-.09-2.39-2.68-5.84-6.44-1.72-1.88-3.72-4.07-5.91-6.37-1.1-1.13-2.23-2.31-3.41-3.47-.59-.59-1.18-1.17-1.79-1.7-.29-.27-.6-.52-.91-.76a.24.24 0 00-.13-.09c-.08 0-.21 0-.25.14-1.51 1.33-3 2.67-4.45 4 6.5 6.61 11.77 12.58 13.21 14.18.26.25.39.39.4.37v.06s-.15-.15-.4-.43c-1.5-1.49-7.14-7.31-13.88-13.57-6.73 6.25-12.36 12.07-13.88 13.57-.25.28-.39.43-.4.43v-.06s.15-.12.4-.37c1.46-1.61 6.73-7.57 13.22-14.18-1.45-1.34-2.95-2.68-4.46-4 0-.09-.14-.1-.22-.13a.34.34 0 00-.14.08 12 12 0 00-.93.76c-.6.53-1.2 1.11-1.79 1.7-1.18 1.16-2.32 2.34-3.4 3.47-2.18 2.3-4.2 4.49-5.92 6.37-3.45 3.76-5.75 6.35-5.85 6.44a1.28 1.28 0 01-1.16 0 1.32 1.32 0 01-.64-1.74c.15-.05 2.56-2.53 6.15-6.15zm-2.72-43.38l1.11-.32.55 1.9L132 41l.58 2-1.11.32-.58-2-1.08-3.77zm5.28-.24v-.09a3.73 3.73 0 012.49-1.56 3.77 3.77 0 012.9.54 3.72 3.72 0 011.74 2.61 3.84 3.84 0 01-.62 3 4 4 0 01-5.5 1.08 3.83 3.83 0 01-1.7-2.61 3.67 3.67 0 01.72-2.97zM150 33.73l-.07-1.38h.33l.08 1.48.35 6.47h-.21l-6-7 .3 5.38.09 1.73h-.26l-.1-1.73-.22-4.11-.1-1.9 1.2-.06 4.89 5.77zm6.44.71a1.44 1.44 0 01.55-1 1.54 1.54 0 011.18-.36 1.72 1.72 0 011.07.45 1 1 0 01.35.94c0 .56-.46 1.1-1.59 1.54l1.77 2.82 1.23-1.07h.38l-1.46 1.31 1.25 2L160 41l-.79-1.31-.13.11-.12.1a2.88 2.88 0 01-2 .77 2.11 2.11 0 01-1.36-.7 2.28 2.28 0 01-.44-.71 1.64 1.64 0 01-.09-.85 1.86 1.86 0 01.48-1.16 6.54 6.54 0 011.54-1.07 3.33 3.33 0 01-.67-1.74zm8.3 7l1.87-7.7 2.14.53a5.74 5.74 0 012.55 1.18 3.5 3.5 0 011.09 1.75 4.68 4.68 0 010 2.17 4.77 4.77 0 01-.64 1.46 3.39 3.39 0 01-1 1 3.16 3.16 0 01-1.22.45 4 4 0 01-1.19 0 7.63 7.63 0 01-1.5-.3zm16.09-3.38l-.09.25-2.29-.9-1-.39-.63 1.59-.08.22-.52 1.31.75.3 1.4.54-.1.26-1.37-.54-.78-.3-.36.91v.17l-.1.27-.21.51-.64 1.65.85.39 2.29.9-.11.25-4.34-1.7.75-1.9.19-.52.17-.43 1.08-2.72.78-1.83zm-2-1.77l1-.58.52.21-1.07.54zm2.17 9.18a2.46 2.46 0 001.38 1.65 2.83 2.83 0 001.31.27 2.15 2.15 0 001.13-.32v.28a3.33 3.33 0 01-2.86 0 3.62 3.62 0 01-2-4.71c0-.12.11-.24.17-.36a5 5 0 011.31-1.74 3.22 3.22 0 011.88-.77 4 4 0 012 .38 3.58 3.58 0 011.3 1 3.29 3.29 0 01.62 1.13l-.29.09a2.49 2.49 0 00-.2-.6 2.89 2.89 0 00-1.3-1.31 2.36 2.36 0 00-2.19.06 4.69 4.69 0 00-1.81 2.24 4 4 0 00-.45 2.71zm-32.5 55.07v21.28h-1.2v-21.28zm-10.87 1.9a1.11 1.11 0 01-.37-.87 1.07 1.07 0 01.35-.82 1.14 1.14 0 01.85-.34 1.1 1.1 0 01.84.34 1.07 1.07 0 01.35.82 1.39 1.39 0 01-.09.54l-1.31 2.61h-.85l.75-2a1 1 0 01-.52-.28zm-11.74-59.5l.78 1.94-1.08.43-.77-1.94-2.07-5.19-1.1.43-2 .8-.1-.25 7.26-2.89.1.25-1.88.74-1.23.49zm-2.41 3.13l-1.13.55-1.19-1-1.09-1-2.61 1.31.18 3.1-.38.18-.52-8.6.21-.09zm10.77 131.47a27.7 27.7 0 015.85-4.29c.19-.44.39-.9.58-1.38 1.31-2.85 1.94-4.44 2.06-4.75-1.07 1.24-2.05 1.68-2.94 1.31a1.41 1.41 0 01-1-1.31 3.65 3.65 0 01.47-2 3 3 0 011.19-1.3.23.23 0 01.29 0 .19.19 0 010 .26 4.15 4.15 0 00-1 1.83c-.33 1.08-.16 1.63.49 1.67a1.44 1.44 0 00.55-.08 2.24 2.24 0 00.66-.32c.19-.14.38-.3.56-.46a4 4 0 00.52-.63 6 6 0 00.43-.63c.09-.14.24-.38.42-.7s.29-.53.34-.6a.34.34 0 01.46-.15c.2.09.28.22.21.41a73.62 73.62 0 01-3.13 8.1 20.52 20.52 0 0110.6-2.06l-.07.07a.36.36 0 01.28.18.29.29 0 010 .31.3.3 0 01-.28.15 22.6 22.6 0 00-11.18 2.83l-.54 1.22c-.86 1.88-1.5 3.31-1.95 4.26s-1.08 2.18-1.92 3.7a31.43 31.43 0 01-2.51 3.92 8.51 8.51 0 01-1.84 1.82 3.11 3.11 0 01-1 .47 1.18 1.18 0 01-1-.25A2.55 2.55 0 01129 188q-1.46-4 5.25-10.46zm43.36-17.79a5.28 5.28 0 015.23 5.34 5.23 5.23 0 01-5.11 5.34h-.12a5.83 5.83 0 01-3.48-1.19 5.43 5.43 0 01-1.81-4.26 5.28 5.28 0 015.29-5.23zm13.86-108.3a4.07 4.07 0 01-4.72-3 3.89 3.89 0 01.55-3.11 3.67 3.67 0 012.53-1.78 4.06 4.06 0 014.65 2.9 3.63 3.63 0 01-.5 3.1 3.82 3.82 0 01-2.51 1.89zm16 4.52l.16.17-3.36 8-.88-.91.64-1.44.63-1.39-2-2.14-2.87 1.21-.3-.3zm3.33 4.12l-1.36-1.66.21-.16 5 6-.21.17-1.29-1.56-.83-1-4.32 3.55-1.62 1.33-.73-.9 1.61-1.33 4.26-3.53zm-2.16 36.4L205.35 99h-1.11l2.17-2.48zM210 71.84l-.65-1 1.73-1.15 3.24-2.17 1.64-1.1.64 1-1.63 1.1-3.25 2.17zm2.81 2.27a4 4 0 012-2.46 3.66 3.66 0 013.08-.28 3.63 3.63 0 012.23 1.9 3.75 3.75 0 01.38 2.93 3.59 3.59 0 01-2 2.44 3.74 3.74 0 01-3.08.35 4.07 4.07 0 01-2.64-4.88zM73.94 100.54v21.28h-1.2v-21.28zm-24.14 0h1.26l6.75 19.11 6.75-19.11h1.27l-7.65 21.28h-.73zm8.05 46.81l4.5-14.48 12.65 8.4-11.09-4.08zm121 51.41a91.23 91.23 0 01-114.67-59.14h1.24a90 90 0 00171.79-1.54l1.26-.06a91.25 91.25 0 01-59.63 60.74zm61.49-76.94h-1.21v-21.28h1.21zm.4-30.6l-12.94-7.91L239 87l5.62-10.39z"/><path class="cls-1" d="M126.8 172.71h.2a7.15 7.15 0 001.73-.62 25.51 25.51 0 003.59-2l.57-.39a14.1 14.1 0 00-5.85 2.31c-.63.5-.72.72-.24.7zM156.19 68.2c0-.1.17-.1.25-.14a.24.24 0 01.13.09c.31.24.62.49.91.76.61.53 1.2 1.11 1.79 1.7 1.18 1.16 2.31 2.34 3.41 3.47 2.19 2.3 4.19 4.49 5.91 6.37 3.45 3.76 5.75 6.35 5.84 6.44a1.31 1.31 0 001.82-1.7c-.1-.09-2.51-2.57-6.14-6.19a394.28 394.28 0 00-6.24-6.11c-1.15-1.11-2.27-2.23-3.58-3.35-.63-.57-1.27-1.13-1.93-1.68-.34-.27-.68-.53-1.08-.79a1.55 1.55 0 00-1-.32 2.22 2.22 0 00-.82.46c-1.49 1.44-3 2.89-4.37 4.32l.67.68c1.42-1.34 2.92-2.68 4.43-4.01z"/><path d="M156.19 68.2c0-.1.17-.1.25-.14a.24.24 0 01.13.09c.31.24.62.49.91.76.61.53 1.2 1.11 1.79 1.7 1.18 1.16 2.31 2.34 3.41 3.47 2.19 2.3 4.19 4.49 5.91 6.37 3.45 3.76 5.75 6.35 5.84 6.44a1.31 1.31 0 001.82-1.7c-.1-.09-2.51-2.57-6.14-6.19a394.28 394.28 0 00-6.24-6.11c-1.15-1.11-2.27-2.23-3.58-3.35-.63-.57-1.27-1.13-1.93-1.68-.34-.27-.68-.53-1.08-.79a1.55 1.55 0 00-1-.32 2.22 2.22 0 00-.82.46c-1.49 1.44-3 2.89-4.37 4.32l.67.68c1.42-1.34 2.92-2.68 4.43-4.01z" fill="url(#linear-gradient-3)"/><path class="cls-1" d="M136.79 86.82s.15-.15.4-.43c-.25.25-.39.39-.4.37z"/><path d="M136.79 86.82s.15-.15.4-.43c-.25.25-.39.39-.4.37z" fill="url(#linear-gradient-4)"/><path class="cls-1" d="M137.19 86.39c1.52-1.5 7.15-7.32 13.88-13.57l-.66-.61c-6.49 6.61-11.76 12.57-13.22 14.18z"/><path d="M137.19 86.39c1.52-1.5 7.15-7.32 13.88-13.57l-.66-.61c-6.49 6.61-11.76 12.57-13.22 14.18z" fill="url(#linear-gradient-5)"/><path class="cls-1" d="M126.54 86.93a1.28 1.28 0 001.16 0c.1-.09 2.4-2.68 5.85-6.44 1.72-1.88 3.74-4.07 5.92-6.37 1.08-1.13 2.22-2.31 3.4-3.47.59-.59 1.19-1.17 1.79-1.7a12 12 0 01.93-.76.34.34 0 01.14-.08c.08 0 .19 0 .22.13 1.51 1.33 3 2.67 4.46 4l.66-.68c-1.41-1.43-2.88-2.88-4.37-4.32a2.19 2.19 0 00-.83-.46 1.45 1.45 0 00-1 .32 12.09 12.09 0 00-1.09.79c-.66.55-1.31 1.11-1.92 1.68-1.31 1.12-2.44 2.24-3.59 3.35-2.3 2.2-4.42 4.29-6.24 6.11-3.62 3.62-6 6.1-6.13 6.19a1.32 1.32 0 00.64 1.71z"/><path d="M126.54 86.93a1.28 1.28 0 001.16 0c.1-.09 2.4-2.68 5.85-6.44 1.72-1.88 3.74-4.07 5.92-6.37 1.08-1.13 2.22-2.31 3.4-3.47.59-.59 1.19-1.17 1.79-1.7a12 12 0 01.93-.76.34.34 0 01.14-.08c.08 0 .19 0 .22.13 1.51 1.33 3 2.67 4.46 4l.66-.68c-1.41-1.43-2.88-2.88-4.37-4.32a2.19 2.19 0 00-.83-.46 1.45 1.45 0 00-1 .32 12.09 12.09 0 00-1.09.79c-.66.55-1.31 1.11-1.92 1.68-1.31 1.12-2.44 2.24-3.59 3.35-2.3 2.2-4.42 4.29-6.24 6.11-3.62 3.62-6 6.1-6.13 6.19a1.32 1.32 0 00.64 1.71z" fill="url(#linear-gradient-6)"/><path class="cls-1" d="M165 86.39c-1.44-1.6-6.71-7.57-13.21-14.18l-.67.61c6.69 6.26 12.33 12.08 13.88 13.57z"/><path d="M165 86.39c-1.44-1.6-6.71-7.57-13.21-14.18l-.67.61c6.69 6.26 12.33 12.08 13.88 13.57z" fill="url(#linear-gradient-7)"/><path class="cls-1" d="M165.35 86.82v-.06s-.14-.12-.4-.37c.25.28.39.43.4.43z"/><path d="M165.35 86.82v-.06s-.14-.12-.4-.37c.25.28.39.43.4.43z" fill="url(#linear-gradient-8)"/><path class="cls-1" d="M134.25 168.81a14.84 14.84 0 00-7.68 2.68 2.16 2.16 0 00-.92 1.18.69.69 0 00.39.83 2.18 2.18 0 001.47 0 19.1 19.1 0 007.11-3.92 31.2 31.2 0 013.62-.08.3.3 0 00.31-.17.36.36 0 000-.35.34.34 0 00-.31-.21v-.08a22.73 22.73 0 00-2.61 0 10.74 10.74 0 001.13-1.3 8.55 8.55 0 001-1.61 5.48 5.48 0 00.51-1.67 1.88 1.88 0 00-.38-1.43 2.71 2.71 0 00-1.58-1 8.37 8.37 0 00-2.91-.15c.68-.47 1.28-.89 1.82-1.3a17.55 17.55 0 001.63-1.48 6.44 6.44 0 001.25-1.75 4.18 4.18 0 00.35-2 2.62 2.62 0 00-1.16-2 6.71 6.71 0 00-2.49-1.06 10.76 10.76 0 00-3.92 0 12.84 12.84 0 00-3.72 1.24 14.12 14.12 0 00-4.84 4.11 17.43 17.43 0 00-2.94 5.87.12.12 0 000 .14.24.24 0 00.12 0c.1 0 .1-.08.1-.08a20.9 20.9 0 011.4-2.72 25.41 25.41 0 011.75-2.62 14 14 0 012.15-2.27 15.34 15.34 0 012.51-1.73 10.31 10.31 0 012.89-1 10.87 10.87 0 013.22-.17 5.44 5.44 0 01.8.09l.83.18a4.27 4.27 0 01.84.32 5.37 5.37 0 01.73.43 2.28 2.28 0 01.59.57 1.83 1.83 0 01.3.77 2.64 2.64 0 010 1.31 4.12 4.12 0 01-.73 1.31 14.59 14.59 0 01-1.05 1.17 9.34 9.34 0 01-1.31 1.12l-1.3.87c-.3.21-.7.45-1.15.71l-1.15.69a32.74 32.74 0 00-3.81 1.5v-.08l.68-1.67c.35-.87.63-1.6.83-2.19a11.92 11.92 0 00.44-1.76.21.21 0 00-.1-.24.18.18 0 00-.26 0l-.14.19a.15.15 0 000 .16 10.76 10.76 0 00-.7 1.4c-.21.55-.45 1.1-.71 1.85s-.43 1.24-.54 1.48l-.52 1.31c-1.67.78-2.84 1.32-3.49 1.58a.41.41 0 00-.2.17.43.43 0 00-.07.25.45.45 0 000 .23.27.27 0 00.17.16.32.32 0 00.27 0c.9-.28 1.8-.6 2.71-1-.4 1.06-.71 2-.94 2.82a.29.29 0 00.2.35h.05a.27.27 0 00.33-.17c.41-.84.89-2 1.43-3.45a43.21 43.21 0 004.28-2.07 14.57 14.57 0 013.13-.61 5 5 0 011.09 0 8.51 8.51 0 011.13.14 1.81 1.81 0 01.9.53 1.6 1.6 0 01.41 1.07 4.69 4.69 0 01-1.46 2.89 14.56 14.56 0 01-1.78 1.72zm-1.91 1.28a25.51 25.51 0 01-3.59 2 7.15 7.15 0 01-1.73.62h-.22c-.48 0-.39-.2.26-.7a14.1 14.1 0 015.85-2.31z"/><path d="M134.25 168.81a14.84 14.84 0 00-7.68 2.68 2.16 2.16 0 00-.92 1.18.69.69 0 00.39.83 2.18 2.18 0 001.47 0 19.1 19.1 0 007.11-3.92 31.2 31.2 0 013.62-.08.3.3 0 00.31-.17.36.36 0 000-.35.34.34 0 00-.31-.21v-.08a22.73 22.73 0 00-2.61 0 10.74 10.74 0 001.13-1.3 8.55 8.55 0 001-1.61 5.48 5.48 0 00.51-1.67 1.88 1.88 0 00-.38-1.43 2.71 2.71 0 00-1.58-1 8.37 8.37 0 00-2.91-.15c.68-.47 1.28-.89 1.82-1.3a17.55 17.55 0 001.63-1.48 6.44 6.44 0 001.25-1.75 4.18 4.18 0 00.35-2 2.62 2.62 0 00-1.16-2 6.71 6.71 0 00-2.49-1.06 10.76 10.76 0 00-3.92 0 12.84 12.84 0 00-3.72 1.24 14.12 14.12 0 00-4.84 4.11 17.43 17.43 0 00-2.94 5.87.12.12 0 000 .14.24.24 0 00.12 0c.1 0 .1-.08.1-.08a20.9 20.9 0 011.4-2.72 25.41 25.41 0 011.75-2.62 14 14 0 012.15-2.27 15.34 15.34 0 012.51-1.73 10.31 10.31 0 012.89-1 10.87 10.87 0 013.22-.17 5.44 5.44 0 01.8.09l.83.18a4.27 4.27 0 01.84.32 5.37 5.37 0 01.73.43 2.28 2.28 0 01.59.57 1.83 1.83 0 01.3.77 2.64 2.64 0 010 1.31 4.12 4.12 0 01-.73 1.31 14.59 14.59 0 01-1.05 1.17 9.34 9.34 0 01-1.31 1.12l-1.3.87c-.3.21-.7.45-1.15.71l-1.15.69a32.74 32.74 0 00-3.81 1.5v-.08l.68-1.67c.35-.87.63-1.6.83-2.19a11.92 11.92 0 00.44-1.76.21.21 0 00-.1-.24.18.18 0 00-.26 0l-.14.19a.15.15 0 000 .16 10.76 10.76 0 00-.7 1.4c-.21.55-.45 1.1-.71 1.85s-.43 1.24-.54 1.48l-.52 1.31c-1.67.78-2.84 1.32-3.49 1.58a.41.41 0 00-.2.17.43.43 0 00-.07.25.45.45 0 000 .23.27.27 0 00.17.16.32.32 0 00.27 0c.9-.28 1.8-.6 2.71-1-.4 1.06-.71 2-.94 2.82a.29.29 0 00.2.35h.05a.27.27 0 00.33-.17c.41-.84.89-2 1.43-3.45a43.21 43.21 0 004.28-2.07 14.57 14.57 0 013.13-.61 5 5 0 011.09 0 8.51 8.51 0 011.13.14 1.81 1.81 0 01.9.53 1.6 1.6 0 01.41 1.07 4.69 4.69 0 01-1.46 2.89 14.56 14.56 0 01-1.78 1.72zm-1.91 1.28a25.51 25.51 0 01-3.59 2 7.15 7.15 0 01-1.73.62h-.22c-.48 0-.39-.2.26-.7a14.1 14.1 0 015.85-2.31z" fill="url(#linear-gradient-9)"/><path class="cls-1" d="M129.84 189.15a1.18 1.18 0 001 .25 3.11 3.11 0 001-.47 8.51 8.51 0 001.84-1.82 31.43 31.43 0 002.51-3.92c.84-1.52 1.48-2.75 1.92-3.7s1.09-2.38 1.95-4.26l.54-1.22a22.6 22.6 0 0111.21-2.78.3.3 0 00.28-.15.29.29 0 000-.31.36.36 0 00-.28-.18l.07-.07a20.52 20.52 0 00-10.6 2.06 73.62 73.62 0 003.13-8.1c.07-.19 0-.32-.21-.41a.34.34 0 00-.46.15c0 .07-.16.27-.34.6s-.33.56-.42.7a6 6 0 01-.43.63 4 4 0 01-.52.63c-.18.16-.37.32-.56.46a2.24 2.24 0 01-.66.32 1.44 1.44 0 01-.55.08c-.65 0-.82-.59-.49-1.67a4.15 4.15 0 011-1.83.19.19 0 000-.26.23.23 0 00-.29 0 3 3 0 00-1.19 1.3 3.65 3.65 0 00-.47 2 1.41 1.41 0 001 1.31c.89.37 1.87-.07 2.94-1.31-.12.31-.75 1.9-2.06 4.75-.19.48-.39.94-.58 1.38a27.7 27.7 0 00-5.85 4.29Q127.53 184 129 188a2.55 2.55 0 00.84 1.15zm0-3.12a7.72 7.72 0 01.3-1.17 17.09 17.09 0 013.51-5.37 25.44 25.44 0 015.84-4.85c-1.49 3.27-3 6.13-4.29 8.5h-.1v.21l-.07.14c-.33.6-.63 1.17-.9 1.56s-.65 1-1.15 1.7a5.37 5.37 0 01-1.4 1.49 1 1 0 01-1.16.13 1.33 1.33 0 01-.58-1 4.05 4.05 0 01-.02-1.37z"/><path d="M129.84 189.15a1.18 1.18 0 001 .25 3.11 3.11 0 001-.47 8.51 8.51 0 001.84-1.82 31.43 31.43 0 002.51-3.92c.84-1.52 1.48-2.75 1.92-3.7s1.09-2.38 1.95-4.26l.54-1.22a22.6 22.6 0 0111.21-2.78.3.3 0 00.28-.15.29.29 0 000-.31.36.36 0 00-.28-.18l.07-.07a20.52 20.52 0 00-10.6 2.06 73.62 73.62 0 003.13-8.1c.07-.19 0-.32-.21-.41a.34.34 0 00-.46.15c0 .07-.16.27-.34.6s-.33.56-.42.7a6 6 0 01-.43.63 4 4 0 01-.52.63c-.18.16-.37.32-.56.46a2.24 2.24 0 01-.66.32 1.44 1.44 0 01-.55.08c-.65 0-.82-.59-.49-1.67a4.15 4.15 0 011-1.83.19.19 0 000-.26.23.23 0 00-.29 0 3 3 0 00-1.19 1.3 3.65 3.65 0 00-.47 2 1.41 1.41 0 001 1.31c.89.37 1.87-.07 2.94-1.31-.12.31-.75 1.9-2.06 4.75-.19.48-.39.94-.58 1.38a27.7 27.7 0 00-5.85 4.29Q127.53 184 129 188a2.55 2.55 0 00.84 1.15zm0-3.12a7.72 7.72 0 01.3-1.17 17.09 17.09 0 013.51-5.37 25.44 25.44 0 015.84-4.85c-1.49 3.27-3 6.13-4.29 8.5h-.1v.21l-.07.14c-.33.6-.63 1.17-.9 1.56s-.65 1-1.15 1.7a5.37 5.37 0 01-1.4 1.49 1 1 0 01-1.16.13 1.33 1.33 0 01-.58-1 4.05 4.05 0 01-.02-1.37z" fill="url(#linear-gradient-10)"/><path class="cls-4" d="M157.13 154a5.67 5.67 0 014.68 2.31 8.82 8.82 0 011.3 3.61h.53l-.15-6.24H163a6.51 6.51 0 01-.64 2.12 7.37 7.37 0 00-5.57-2.42c-4.76 0-8 3.6-8 8.83a7.45 7.45 0 000 .82 7.74 7.74 0 008.09 7.37 7.11 7.11 0 005.54-2.43 4.12 4.12 0 01.78 1.73h.53v-5.81l-.5.07a6.92 6.92 0 01-2.61 4.8 6.45 6.45 0 01-3.27 1c-3.53 0-5.79-3-5.79-7.62-.09-5.14 2.03-8.14 5.57-8.14zM166 169.46h-.27v.54h5.32v-.58h-.29c-1.48 0-1.48-.2-1.48-2.82l-.07-13.28H169a10.31 10.31 0 01-3.17.51v.58h.17c1.28 0 1.47.41 1.47 2.36v10.63a5.08 5.08 0 010 .78 1.4 1.4 0 01-.14.83c-.23.34-.6.45-1.33.45zM174.09 169.24a5.83 5.83 0 003.48 1.19h.12a5.23 5.23 0 005.11-5.34 5.28 5.28 0 10-10.56-.11 5.43 5.43 0 001.85 4.26zm3.48-9c2.21 0 3.26 1.64 3.26 4.88s-1 4.72-3.29 4.72-3.25-1.47-3.25-4.79 1.07-4.77 3.28-4.77z"/><path class="cls-1" d="M227.79 83.31l12.94 7.91 3.92-14.64-5.62 10.39-11.24-3.66z"/><path fill="url(#linear-gradient-11)" d="M227.79 83.31l12.94 7.91 3.92-14.64-5.62 10.39-11.24-3.66z"/><path class="cls-1" d="M62.35 132.87l-4.5 14.48 6.04-10.16 11.09 4.08-12.63-8.4z"/><path fill="url(#linear-gradient-12)" d="M62.35 132.87l-4.5 14.48 6.04-10.16 11.09 4.08-12.63-8.4z"/><path class="cls-1" d="M177.24 25.75a90 90 0 0159.48 58.39H238a91.22 91.22 0 00-174.32 1.59h1.24a90 90 0 01112.32-59.98z"/><path d="M177.24 25.75a90 90 0 0159.48 58.39H238a91.22 91.22 0 00-174.32 1.59h1.24a90 90 0 01112.32-59.98z" fill="url(#linear-gradient-13)"/><path class="cls-1" d="M124.88 198a90 90 0 01-59.46-58.4h-1.24a91.22 91.22 0 00174.29-1.6l-1.26.06A90 90 0 01124.88 198z"/><path d="M124.88 198a90 90 0 01-59.46-58.4h-1.24a91.22 91.22 0 00174.29-1.6l-1.26.06A90 90 0 01124.88 198z" fill="url(#linear-gradient-14)"/><path class="cls-4" d="M80.75 86.35a3.84 3.84 0 003.15 0 4.05 4.05 0 002.16-5.13A3.77 3.77 0 0083.85 79a3.63 3.63 0 00-3.15 0 3.81 3.81 0 00-2 2.13 3.67 3.67 0 000 2.94h-.06a3.62 3.62 0 002.11 2.28zm-1.83-5a2.39 2.39 0 011.68-1.55 4.24 4.24 0 012.75.49 4.34 4.34 0 012.3 1.64 2.25 2.25 0 01.11 2.15 2.21 2.21 0 01-1.62 1.47 4.57 4.57 0 01-2.84-.39 4.41 4.41 0 01-2.25-1.76 2.11 2.11 0 01-.13-2.09zM86.75 72.49a1.69 1.69 0 00-.85-1.15 1.6 1.6 0 00-1.21-.18 2.36 2.36 0 00-1.13.68 6.64 6.64 0 00-1.07 1.49l-.86 1.53 1.74 1 3.33 1.91 1.83 1 .56-1-1.83-1-1.45-.82.17-.3c1.07-1.88 4.63-1.22 5-1.11l.45-.8a13.31 13.31 0 00-2.89-.13 3.75 3.75 0 00-2 .72 2.88 2.88 0 00.21-1.84zm-.48 1.78a2.68 2.68 0 01-.22.73l-.45.81L82.5 74l.25-.44c.47-.73.89-1.23 1.31-1.31a2 2 0 011.31.29 2.28 2.28 0 01.62.49 1.2 1.2 0 01.28.55 1.47 1.47 0 010 .69zM215.4 79a3.74 3.74 0 003.08-.35 3.59 3.59 0 002-2.44 3.75 3.75 0 00-.38-2.93 3.63 3.63 0 00-2.23-1.9 3.66 3.66 0 00-3.08.28 4 4 0 00-2 2.46A4.07 4.07 0 00215.4 79zm-2.13-4.21a4.33 4.33 0 012.09-2 4.44 4.44 0 012.77-.66 2.1 2.1 0 011.71 1.22 2.32 2.32 0 01.13 2.24 4.31 4.31 0 01-2.11 1.84 4.25 4.25 0 01-2.74.76 2.23 2.23 0 01-1.73-1.19 2.19 2.19 0 01-.12-2.2zM224.03 85.59l-4.34 1.66 4.01-6.42-.43-1.13-1.78.69-3.84 1.47-1.62.62.09.23 1.62-.61 5.03-1.94-4.82 7.88.08.2 6.03-2.31 1.39-.54-.12-.31-1.3.51z"/><path class="cls-18" d="M1.2 100.54H0v21.28h9.32v-1.2H1.2v-20.08zM23 100.54l-7.84 21.28h1.3l3.47-9.36h7.32l3.4 9.36h1.3l-7.71-21.28zm-2.63 10.73l3.24-8.93 3.24 8.93zM65.83 100.54h-1.27l-6.75 19.11-6.75-19.11H49.8l7.65 21.28h.73l7.65-21.28zM72.74 100.54h1.2v21.28h-1.2zM93.2 101.74v-1.2H82.56v21.28H93.2v-1.2h-9.44v-8.84h9.44v-1.2h-9.44v-8.84h9.44zM126.48 118.91a10.93 10.93 0 000-15.43 11.1 11.1 0 00-8.15-2.94h-3.92v21.28h3.92a11.12 11.12 0 008.15-2.91zm-10.89 1.68v-18.74l2.73-.11a10 10 0 017.24 2.54 9.73 9.73 0 010 13.7 10 10 0 01-7.24 2.61zM138.25 104.72l1.31-2.61a1.39 1.39 0 00.09-.54 1.07 1.07 0 00-.35-.82 1.1 1.1 0 00-.84-.34 1.14 1.14 0 00-.85.34 1.07 1.07 0 00-.35.82 1.11 1.11 0 00.37.87 1 1 0 00.52.3l-.75 2zM147.3 100.54h1.2v21.28h-1.2zM173.94 121.82v-21.28h-1.21v19.82l-14.14-19.82h-1.53v21.28h1.2v-19.36l13.82 19.36h1.86zM187.73 121.82v-20.08h5.38v-1.2h-11.96v1.2h5.39v20.08h1.19zM211.01 101.72v-1.18h-10.64v21.25h10.64v-1.2h-9.44v-8.84h9.44v-1.2h-9.44v-8.83h9.44zM204.24 98.97h1.11l3.27-2.48h-2.21l-2.17 2.48zM229.24 102.57a7.14 7.14 0 00-4.14-2h-5.58v21.28h1.2v-7.37h3.92l4.8 7.37h1.46l-4.9-7.57a7 7 0 003.24-11.68zm-4.91 10.66h-3.61v-11.47h3.61a5.74 5.74 0 110 11.47zM239.12 100.54h1.2v21.28h-1.2zM250.14 111.78h9.44v-1.2h-9.44v-8.84h9.44v-1.2h-10.64v21.28h10.64v-1.2h-9.44v-8.84zM280.75 115.06a5.75 5.75 0 01-11.49 0v-14.52H268v14.57a7 7 0 0011.9 4.89 7 7 0 002-4.19v-15.27h-1.2zM300.1 112.46a7 7 0 00-4.1-11.92h-5.58v21.28h1.2v-7.37h3.92l4.8 7.37h1.48l-4.92-7.57a7.1 7.1 0 003.2-1.79zm-4.85.77h-3.61v-11.47h3.62a5.74 5.74 0 110 11.47z"/></g></g></svg>